# xmcd CD database file
#
# Track frame offsets:
#	150
#	26425
#	38937
#	49019
#	62029
#	73661
#	85821
#	109655
#	124419
#	139324
#	152574
#	162136
#	172163
#	184470
#	196517
#	213014
#	224923
#	242575
#
# Disc length: 3669 seconds
#
# Revision: 11
# Processed by: cddbd v1.5.2PL0 Copyright (c) Steve Scherf et al.
# Submitted via: CDex 1.70beta2
#
DISCID=070e5312,f40e5312
DTITLE=Various Artist - Play Me The Blues - Disc 1
DYEAR=1998
DGENRE=Blues
TTITLE0=John Mayall - Ridin' on the L and N
TTITLE1=Elmore James - Standing at the Crossroads
TTITLE2=Eric Clapton and Jimmy Page - Tribute to Elmore
TTITLE3=Johnny Winter - Leavin' Blues
TTITLE4=John Lee Hooker - Boogie Chillen 2
TTITLE5=Canned Heat - Got My Mojo Working
TTITLE6=B.B. King - You`ve Done Lost You're Good Thing Now
TTITLE7=Lightnin' Hopkins - Santa Fe Blues
TTITLE8=Brownie McGhee and Sonny Terry - Down By the Riverside
TTITLE9=Elmore James - Dust My Broom
TTITLE10=Canned Heat - Big Road Blues
TTITLE11=John Lee Hooker - Dusty Road
TTITLE12=Hall and Oates - Deep River Blues
TTITLE13=Johnny Guitar Watson - One Room Country Shack
TTITLE14=The Animals and Sonny Boy Williamson - Pontiac Blues
TTITLE15=Big Joe Williams - Ride In My New Car
TTITLE16=Mike Bloomfield - Jockey Blues
TTITLE17=Big Mama Thornton - Ball and Chain
EXTD=3 cd BOX YEAR: 1998
EXTT0=
EXTT1=
EXTT2=
EXTT3=
EXTT4=
EXTT5=
EXTT6=
EXTT7=
EXTT8=
EXTT9=
EXTT10=
EXTT11=
EXTT12=
EXTT13=
EXTT14=
EXTT15=
EXTT16=
EXTT17=
PLAYORDER=
